# xmcd
#
# Track frame offsets: 
#        182
#        20675
#        44890
#        68987
#        85570
#        107750
#        126085
#        148815
#        167052
#        189092
#        224905
#        253770
#        273527
#
# Disc length: 3792 seconds
#
# Revision: 1
# Processed by: cddbd v1.5.1PL0 Copyright (c) Steve Scherf et al.
# Submitted via: ExactAudioCopy v0.90b3
#
DISCID=cb0ece0d
DTITLE=Boston Blackie and Otis "Big Smokey" Smothers - Chicago Blues Ses
DTITLE=sion Vol. 1
DYEAR=1998
DGENRE=Blues
TTITLE0=Otis Smothers - I Can't Judge Nobody
TTITLE1=Otis Smothers - Hello Little School Girl
TTITLE2=Otis Smothers - Sad, Sad Day
TTITLE3=Otis Smothers - Do the Thing
TTITLE4=Boston Blackie - ABC Blues
TTITLE5=Boston Blackie - Louise
TTITLE6=Boston Blackie - Hey Baby
TTITLE7=Boston Blackie - How Much More Long
TTITLE8=Otis Smothers - Give Me Back That Way
TTITLE9=Otis Smothers - Blues All Day Long
TTITLE10=Otis Smothers - I've Been Drinking Muddy Water
TTITLE11=Boston Blackie - ABC Blues (Take 2)
TTITLE12=Boston Blackie - Find Me Another Babe
EXTD=YEAR: 1998
EXTT0=
EXTT1=
EXTT2=
EXTT3=
EXTT4=
EXTT5=
EXTT6=
EXTT7=
EXTT8=
EXTT9=
EXTT10=
EXTT11=
EXTT12=
PLAYORDER=
